<?xml version="1.0" encoding="utf-8"?>
<!-- Generator: Adobe Illustrator 18.1.0, SVG Export Plug-In . SVG Version: 6.00 Build 0)  -->
<svg version="1.1" id="Layer_1" xmlns="http://www.w3.org/2000/svg" xmlns:xlink="http://www.w3.org/1999/xlink" x="0px" y="0px"
	 viewBox="0 0 86 68" enable-background="new 0 0 86 68" xml:space="preserve">
<g>
	<path d="M10.8,56.8c0.8-0.3,19.6-5.5,19.6-18.5c-0.1-4.3-1.5-6.1-5.2-6.1c-3.6,0-7.2,2.2-9.5,4.8l-2-0.4L17.4,16h14.3
		c4.4,0,6.8-0.6,9.7-3.6h1.2l-4.2,11.4H19l-1.7,9.4c2.2-2.2,5.9-4,9.7-4c6.5,0,12,1.9,12,9.6C39,54.1,11.4,56.7,10.8,56.8z"/>
	<path d="M69.8,14.8c-0.8,0.3-17.7,6.1-17.8,25.8c0.7-2.3,4-10.8,11.8-10.8c7.3,0,11.4,5.7,11.4,12c0,9.9-7.3,15-15.6,15
		c-11.3,0-16.2-7.9-16.2-17.4C43.5,16.9,69.2,14.8,69.8,14.8z M52,40.9c0.1,7,3.3,12.8,8.8,12.8c3.8,0,7.2-2.5,7.2-9
		c0-4.8-3.2-7.8-7.8-7.8C55.3,37,52.6,40,52,40.9z"/>
</g>
</svg>
