<?xml version="1.0" encoding="utf-8"?>
<!-- Generator: Adobe Illustrator 19.1.0, SVG Export Plug-In . SVG Version: 6.00 Build 0)  -->
<svg version="1.1" id="Layer_1" xmlns="http://www.w3.org/2000/svg" xmlns:xlink="http://www.w3.org/1999/xlink" x="0px" y="0px"
	 viewBox="0 0 30.3 45.3" style="enable-background:new 0 0 30.3 45.3;" xml:space="preserve">
<g id="XMLID_22_">
	<g id="XMLID_28_">
		<path d="M23.1,25.6h1.4V39c0,1.1-0.3,2-0.9,2.6c-0.5,0.6-1.3,0.9-2.1,0.9c-1.5,0-3.1-1.2-3.1-3.5V30h1.4v9.1c0,1.4,0.9,2,1.6,2
			c0.4,0,0.8-0.2,1-0.5c0.3-0.4,0.5-1,0.5-1.7V25.6z"/>
	</g>
	<g id="XMLID_27_">
		<path d="M10.4,13.5h1.4c0,3.9,1.5,6,4.7,6.6l-0.3,1.4C12.4,20.8,10.4,18.1,10.4,13.5z"/>
	</g>
	<g id="XMLID_26_">
		<path d="M14.1,1.7c2.5,0,4.4,0.5,5.8,1.4c1.1,0.8,1.4,1.6,1.4,1.6l0,0.1v5.2c0.6,0.6,1.2,1.2,1.8,1.8c3.1,3.1,5.8,5.7,4.2,8.7
			l-4.4,8.5c-1.1,2-3.1,2.2-4.5,1.5c-1.4-0.8-2.3-2.6-1.1-4.9l3.3-6.3l1.3,0.7l-3.3,6.3c-0.8,1.4-0.3,2.5,0.6,3
			c0.8,0.4,1.9,0.3,2.6-0.9l4.4-8.4c1-1.9-0.9-3.9-4-7c-0.6-0.6-1.3-1.3-2-2l-0.2-0.2V5.1c-0.2-0.4-1.3-2-5.8-2
			c-4.4,0-5.5,1.6-5.7,2v5.5l-0.2,0.2C8,11,3.7,15.6,5.9,21.6l-1.3,0.5c-2.3-6.2,1.4-11,2.4-12V4.9l0-0.1c0-0.1,0.3-0.9,1.4-1.7
			C9.7,2.2,11.6,1.7,14.1,1.7z"/>
	</g>
	<g id="XMLID_25_">
		<path d="M16.3,20.1c1.5,0,3.1,1.2,3.1,3.5V24H18v-0.3c0-1.4-0.9-2.1-1.7-2.1c-0.4,0-0.8,0.2-1,0.5c-0.3,0.4-0.5,0.9-0.5,1.6v5.4
			c0,1.3,0.8,2,1.6,2.1c0.6,0.1,1.4-0.3,1.6-1.5l1.4,0.2c-0.3,2-1.8,2.8-3.1,2.7c-1.4-0.1-2.9-1.4-2.9-3.5v-5.4c0-1.1,0.3-2,0.9-2.6
			C14.8,20.5,15.5,20.1,16.3,20.1z"/>
	</g>
	<g id="XMLID_24_">
		<path d="M11.7,20.1c1.5,0,3.1,1.2,3.1,3.5h-1.4c0-1.4-0.9-2.1-1.7-2.1c-0.4,0-0.8,0.2-1,0.5c-0.3,0.4-0.5,0.9-0.5,1.6v5.4
			c0,1.4,0.9,2.1,1.7,2.1c0.4,0,0.8-0.2,1-0.5c0.3-0.4,0.5-0.9,0.5-1.6h1.4c0,1.1-0.3,2-0.9,2.6c-0.5,0.6-1.3,0.9-2.1,0.9
			c-1.5,0-3.1-1.2-3.1-3.5v-5.4c0-1.1,0.3-2,0.9-2.6C10.2,20.5,10.9,20.1,11.7,20.1z"/>
	</g>
	<g id="XMLID_23_">
		<path d="M7,20.1c1.5,0,3.1,1.2,3.1,3.5H8.7c0-1.4-0.9-2.1-1.7-2.1c-0.4,0-0.8,0.2-1,0.5c-0.3,0.4-0.5,0.9-0.5,1.6v3.6
			c0,1.4,0.9,2.1,1.7,2.1c0.4,0,0.8-0.2,1-0.5c0.3-0.4,0.5-0.9,0.5-1.6h1.4c0,1.1-0.3,2-0.9,2.6c-0.5,0.6-1.3,0.9-2.1,0.9
			c-1.5,0-3.1-1.2-3.1-3.5v-3.6c0-1.1,0.3-2,0.9-2.6C5.5,20.4,6.2,20.1,7,20.1z"/>
	</g>
</g>
</svg>
